Coordinates
version=1
nRows=14
nColumns=40
inDegrees=yes

Units are S.I. units (second, meters, Newtons, ...)
Angles are in degrees.

endheader
time	pelvis_tilt	pelvis_list	pelvis_rotation	pelvis_tx	pelvis_ty	pelvis_tz	hip_flexion_r	hip_adduction_r	hip_rotation_r	knee_angle_r	knee_angle_r_beta	ankle_angle_r	subtalar_angle_r	mtp_angle_r	hip_flexion_l	hip_adduction_l	hip_rotation_l	knee_angle_l	knee_angle_l_beta	ankle_angle_l	subtalar_angle_l	mtp_angle_l	lumbar_extension	lumbar_bending	lumbar_rotation	arm_flex_r	arm_add_r	arm_rot_r	elbow_flex_r	pro_sup_r	wrist_flex_r	wrist_dev_r	arm_flex_l	arm_add_l	arm_rot_l	elbow_flex_l	pro_sup_l	wrist_flex_l	wrist_dev_l
     22.41250000	     -8.49035243	     -6.20349091	      6.09433844	      1.00297283	      0.91700285	      0.46972004	      4.18690527	      2.32376863	    -14.36963798	     17.80984364	     17.80984364	     16.40838251	     -4.38023947	     -2.58493230	     30.77191331	     -6.50496981	      1.87245867	     26.31030231	     26.31030231	      6.67214667	    -14.07877942	      3.20533918	     -8.90761890	      2.88512071	      4.73198767	     38.95233706	    -15.32153156	    -11.36178208	     95.05871800	     44.72422201	      0.00000000	      0.00000000	     -0.79925145	    -11.49512878	     10.86444835	     31.58279517	     45.12207430	      0.00000000	      0.00000000
     22.43171429	     -8.28708755	     -6.08157635	      5.83293221	      1.00368533	      0.91794145	      0.46525056	      3.55343230	      1.74751311	    -14.83040282	     17.93153309	     17.93153309	     16.03052654	     -3.09028593	     -3.65503610	     30.19089234	     -6.17367579	      1.88327396	     26.74059798	     26.74059798	      7.57213244	    -14.49121986	      4.55024530	     -8.74304615	      2.81492704	      4.58817722	     38.99725390	    -14.57649746	    -12.20114704	     90.51787490	     44.91639336	      0.00000000	      0.00000000	      0.36330235	    -11.75820764	      9.02039016	     31.93103503	     45.41918111	      0.00000000	      0.00000000
     22.45092857	     -8.22188097	     -6.12594457	      5.53501761	      1.00400250	      0.91864812	      0.46100715	      3.12536116	      1.45497622	    -14.76381426	     18.00465688	     18.00465688	     15.68259934	     -2.68292089	     -3.86775565	     29.68990659	     -6.06512573	      1.73997136	     26.90413814	     26.90413814	      8.10870169	    -14.70870778	      4.77380439	     -8.69512701	      2.97950728	      4.96589237	     38.34468264	    -14.84091650	    -12.25113686	     88.45500895	     44.98829575	      0.00000000	      0.00000000	      1.97461269	    -12.05917326	      8.31136372	     32.65440585	     45.54643359	      0.00000000	      0.00000000
     22.47014286	     -8.12584163	     -6.11865842	      5.21708647	      1.00430486	      0.91925853	      0.45666572	      2.73141732	      1.04062347	    -14.85075128	     18.23320890	     18.23320890	     15.36674792	     -2.04434635	     -4.27576829	     29.17465081	     -5.90065779	      1.56004513	     27.14211187	     27.14211187	      8.69801643	    -14.96837481	      5.08531178	     -8.55328838	      3.09698449	      5.14120255	     37.86928404	    -14.79375263	    -12.53287558	     85.63232091	     45.09247238	      0.00000000	      0.00000000	      3.47506797	    -12.33885343	      7.62513567	     33.13119029	     45.66593186	      0.00000000	      0.00000000
     22.48935714	     -8.02591803	     -6.09000270	      4.87779681	      1.00443295	      0.91976968	      0.45232849	      2.39666770	      0.57832190	    -14.92186094	     18.53494855	     18.53494855	     14.87949526	     -1.50584215	     -5.26992424	     28.69656932	     -5.71007895	      1.38327570	     27.47027483	     27.47027483	      9.58458734	    -15.15383474	      5.97348152	     -8.43435625	      3.23766622	      4.45640146	     38.09773411	    -13.74039757	    -12.54484032	     81.31265141	     45.24397694	      0.00000000	      0.00000000	      4.58104501	    -12.55817991	      6.17145336	     33.20172587	     45.87993697	      0.00000000	      0.00000000
     22.50857143	     -7.96386783	     -6.08899101	      4.47575583	      1.00432880	      0.92012448	      0.44811465	      2.26785347	      0.12512977	    -14.81310183	     19.10820635	     19.10820635	     14.62781318	     -1.12870630	     -5.64816426	     28.23578665	     -5.59338197	      1.09112602	     27.70534605	     27.70534605	     10.07972009	    -15.34239014	      5.99980496	     -8.38541577	      3.38959934	      4.94183030	     37.13424495	    -14.15830261	    -12.66550714	     78.93810593	     45.32401755	      0.00000000	      0.00000000	      6.31632902	    -12.83162757	      5.79005532	     33.92463888	     45.95641797	      0.00000000	      0.00000000
     22.52778571	     -7.86935458	     -6.07906939	      4.05755575	      1.00412364	      0.92045502	      0.44393917	      2.22063589	     -0.38414982	    -14.76706781	     19.85367857	     19.85367857	     14.05484298	     -0.85281937	     -6.98288465	     27.77088157	     -5.46814793	      0.79225479	     28.00778724	     28.00778724	     10.82096784	    -15.48169128	      6.54632698	     -8.28035027	      3.55438361	      4.51071833	     37.13060565	    -13.44728983	    -12.70254565	     74.31041810	     45.47689316	      0.00000000	      0.00000000	      7.71777829	    -13.13638397	      5.26730699	     33.82659865	     46.03922423	      0.00000000	      0.00000000
     22.54700000	     -7.83082621	     -6.10983736	      3.57072890	      1.00372989	      0.92062345	      0.43992480	      2.52166254	     -0.90010444	    -14.54643821	     21.09329661	     21.09329661	     13.58947898	     -0.87129058	     -7.93575187	     27.36094183	     -5.41538621	      0.43436840	     28.27219861	     28.27219861	     11.40008837	    -15.62378647	      6.62414984	     -8.19501615	      3.73845901	      4.82511261	     36.11905454	    -13.67788420	    -12.65965808	     71.30326202	     45.56941556	      0.00000000	      0.00000000	      9.35247061	    -13.29663683	      5.06061033	     34.37733803	     46.08760046	      0.00000000	      0.00000000
     22.56621429	     -7.71337926	     -6.10341547	      3.03655037	      1.00318724	      0.92084445	      0.43605338	      2.99219967	     -1.48391105	    -14.16733924	     22.72094524	     22.72094524	     12.65119367	     -1.42023751	    -10.07984839	     26.86654154	     -5.35707464	     -0.00373507	     28.54483630	     28.54483630	     12.09955430	    -15.68956660	      6.99583665	     -8.18656404	      3.89847601	      4.56650127	     35.85490752	    -13.28014315	    -12.39525977	     66.71047885	     45.70301172	      0.00000000	      0.00000000	     10.84663475	    -13.64098066	      5.04773095	     34.33268269	     46.10306882	      0.00000000	      0.00000000
     22.58542857	     -7.63901438	     -6.07128970	      2.44208379	      1.00240136	      0.92087588	      0.43234246	      3.97497194	     -2.20003453	    -13.70035807	     25.21887090	     25.21887090	     12.10727315	     -1.99594592	    -11.01309112	     26.41198443	     -5.29908693	     -0.52178901	     28.78144750	     28.78144750	     12.61551483	    -15.77981494	      6.88132645	     -8.27253134	      4.00910034	      4.80923921	     34.39454119	    -13.43822784	    -12.24270919	     64.69818282	     45.75664464	      0.00000000	      0.00000000	     12.38950857	    -13.84636456	      4.95720085	     34.97279084	     46.13692155	      0.00000000	      0.00000000
     22.60464286	     -7.51715613	     -6.14281417	      1.83485530	      1.00148793	      0.92088839	      0.42890708	      5.10499797	     -2.70383094	    -12.91212569	     27.88316625	     27.88316625	     10.63108076	     -3.73193670	    -13.69270368	     25.98487078	     -5.36053637	     -0.98215827	     29.13125882	     29.13125882	     13.31956131	    -15.87251830	      7.17969695	     -8.26605999	      4.21267438	      4.76745487	     33.93551646	    -13.37744778	    -11.69840884	     59.45174061	     45.89929385	      0.00000000	      0.00000000	     14.02584838	    -14.06906691	      5.28441397	     34.82326711	     46.11347691	      0.00000000	      0.00000000
     22.62385714	     -7.40772723	     -6.03762327	      1.18923461	      1.00037288	      0.92063362	      0.42556842	      6.75356097	     -3.55721796	    -12.25508090	     31.53122445	     31.53122445	      9.76462716	     -4.80321286	    -14.66674386	     25.53229117	     -5.25628845	     -1.57633360	     29.40825728	     29.40825728	     13.84031095	    -15.97005695	      7.03462469	     -8.42209723	      4.22640685	      4.74166868	     32.28532054	    -13.28253370	    -11.46151065	     57.64117900	     45.94077312	      0.00000000	      0.00000000	     15.40423728	    -14.37304945	      5.22403468	     35.36440758	     46.14100777	      0.00000000	      0.00000000
     22.64307143	     -7.21516468	     -5.95385288	      0.54936506	      0.99916485	      0.92024957	      0.42245874	      8.57117726	     -4.31437943	    -11.41910604	     35.51514436	     35.51514436	      8.62681085	     -6.30739981	    -15.40497200	     25.07427111	     -5.18194265	     -2.16312670	     29.82075532	     29.82075532	     14.39950488	    -16.17812783	      6.88204984	     -8.69063867	      4.21330189	      4.75719917	     30.60114312	    -13.30434845	    -11.19958107	     55.49280605	     45.99370792	      0.00000000	      0.00000000	     16.87673618	    -14.60332992	      5.20901312	     35.84614292	     46.16421685	      0.00000000	      0.00000000
     22.66228571	     -7.05339436	     -6.08315748	     -0.09755514	      0.99782420	      0.91970224	      0.41977386	     10.57688345	     -4.52203721	    -10.01076546	     39.52571745	     39.52571745	      6.96135958	     -9.02664048	    -16.14991698	     24.72707825	     -5.33627024	     -2.57883044	     30.33035970	     30.33035970	     15.11817871	    -16.30104688	      7.07961312	     -8.72102964	      4.46313993	      4.83172411	     29.56178459	    -13.43120120	    -10.48712218	     50.60655245	     46.11793624	      0.00000000	      0.00000000	     18.44516980	    -14.74607857	      5.59750086	     35.75460853	     46.13692594	      0.00000000	      0.00000000
